<svg width="24" height="24" viewBox="0 0 24 24" fill="none" xmlns="http://www.w3.org/2000/svg">
<path d="M12 2C6.49 2 2 6.49 2 12C2 17.51 6.49 22 12 22C17.51 22 22 17.51 22 12C22 6.49 17.51 2 12 2ZM14.79 12.53L11.26 16.06C11.11 16.21 10.92 16.28 10.73 16.28C10.54 16.28 10.35 16.21 10.2 16.06C10.0605 15.9189 9.9823 15.7284 9.9823 15.53C9.9823 15.3316 10.0605 15.1411 10.2 15L13.2 12L10.2 9C10.0605 8.85886 9.9823 8.66843 9.9823 8.47C9.9823 8.27157 10.0605 8.08114 10.2 7.94C10.49 7.65 10.97 7.65 11.26 7.94L14.79 11.47C15.09 11.76 15.09 12.24 14.79 12.53Z" fill="black"/>
</svg>
