<svg width="24" height="24" viewBox="0 0 24 24" fill="none" xmlns="http://www.w3.org/2000/svg">
<path d="M18.67 2H16.77C14.59 2 13.44 3.15 13.44 5.33V7.23C13.44 9.41 14.59 10.56 16.77 10.56H18.67C20.85 10.56 22 9.41 22 7.23V5.33C22 3.15 20.85 2 18.67 2ZM7.24 13.43H5.34C3.15 13.43 2 14.58 2 16.76V18.66C2 20.85 3.15 22 5.33 22H7.23C9.41 22 10.56 20.85 10.56 18.67V16.77C10.57 14.58 9.42 13.43 7.24 13.43ZM6.29 10.58C6.85337 10.58 7.41123 10.469 7.93171 10.2534C8.4522 10.0379 8.92512 9.72185 9.32349 9.32349C9.72185 8.92512 10.0379 8.4522 10.2534 7.93171C10.469 7.41123 10.58 6.85337 10.58 6.29C10.58 5.72663 10.469 5.16878 10.2534 4.64829C10.0379 4.1278 9.72185 3.65488 9.32349 3.25651C8.92512 2.85815 8.4522 2.54215 7.93171 2.32656C7.41123 2.11096 6.85337 2 6.29 2C5.15222 2 4.06104 2.45198 3.25651 3.25651C2.45198 4.06104 2 5.15222 2 6.29C2 7.42778 2.45198 8.51896 3.25651 9.32349C4.06104 10.128 5.15222 10.58 6.29 10.58ZM17.71 22.002C18.8478 22.002 19.939 21.55 20.7435 20.7455C21.548 19.941 22 18.8498 22 17.712C22 16.5742 21.548 15.483 20.7435 14.6785C19.939 13.874 18.8478 13.422 17.71 13.422C16.5722 13.422 15.481 13.874 14.6765 14.6785C13.872 15.483 13.42 16.5742 13.42 17.712C13.42 18.8498 13.872 19.941 14.6765 20.7455C15.481 21.55 16.5722 22.002 17.71 22.002Z" fill="black"/>
</svg>
