<svg width="24" height="24" viewBox="0 0 24 24" fill="none" xmlns="http://www.w3.org/2000/svg">
<path d="M7.49995 7.66999V6.69999C7.49995 4.44999 9.30995 2.23999 11.5599 2.02999C12.1851 1.96856 12.8162 2.03871 13.4127 2.23592C14.0091 2.43313 14.5576 2.75303 15.0229 3.17503C15.4883 3.59703 15.8601 4.11178 16.1145 4.68616C16.3689 5.26053 16.5002 5.8818 16.4999 6.50999V7.88999M8.99995 22H14.9999C19.0199 22 19.7399 20.39 19.9499 18.43L20.6999 12.43C20.9699 9.98999 20.2699 7.99999 15.9999 7.99999H7.99995C3.72995 7.99999 3.02995 9.98999 3.29995 12.43L4.04995 18.43C4.25995 20.39 4.97995 22 8.99995 22Z" stroke="black" stroke-width="1.5" stroke-miterlimit="10" stroke-linecap="round" stroke-linejoin="round"/>
<path d="M15.495 12H15.505M8.495 12H8.503" stroke="black" stroke-width="2" stroke-linecap="round" stroke-linejoin="round"/>
</svg>
