<svg width="24" height="24" viewBox="0 0 24 24" fill="none" xmlns="http://www.w3.org/2000/svg">
<path d="M21.07 5.23C19.46 5.07 17.85 4.95 16.23 4.86V4.85L16.01 3.55C15.86 2.63 15.64 1.25 13.3 1.25H10.68C8.35004 1.25 8.13004 2.57 7.97004 3.54L7.76004 4.82C6.83004 4.88 5.90004 4.94 4.97004 5.03L2.93004 5.23C2.51004 5.27 2.21004 5.64 2.25004 6.05C2.29004 6.46 2.65004 6.76 3.07004 6.72L5.11004 6.52C10.35 6 15.63 6.2 20.93 6.73H21.01C21.39 6.73 21.72 6.44 21.76 6.05C21.7751 5.85024 21.7113 5.65253 21.5823 5.49925C21.4533 5.34596 21.2694 5.24931 21.07 5.23ZM19.23 8.14C18.99 7.89 18.66 7.75 18.32 7.75H5.68004C5.34004 7.75 5.00004 7.89 4.77004 8.14C4.54004 8.39 4.41004 8.73 4.43004 9.08L5.05004 19.34C5.16004 20.86 5.30004 22.76 8.79004 22.76H15.21C18.7 22.76 18.84 20.87 18.95 19.34L19.57 9.09C19.59 8.73 19.46 8.39 19.23 8.14ZM13.66 17.75H10.33C9.92004 17.75 9.58004 17.41 9.58004 17C9.58004 16.59 9.92004 16.25 10.33 16.25H13.66C14.07 16.25 14.41 16.59 14.41 17C14.41 17.41 14.07 17.75 13.66 17.75ZM14.5 13.75H9.50004C9.09004 13.75 8.75004 13.41 8.75004 13C8.75004 12.59 9.09004 12.25 9.50004 12.25H14.5C14.91 12.25 15.25 12.59 15.25 13C15.25 13.41 14.91 13.75 14.5 13.75Z" fill="#858585"/>
</svg>
