<svg width="24" height="24" viewBox="0 0 24 24" fill="none" xmlns="http://www.w3.org/2000/svg">
<path d="M12.16 10.87C12.06 10.86 11.94 10.86 11.83 10.87C10.6822 10.831 9.59461 10.3468 8.7976 9.51995C8.00059 8.69307 7.55671 7.58844 7.55997 6.43999C7.55997 3.98999 9.53997 1.99999 12 1.99999C12.5824 1.98948 13.1612 2.0938 13.7033 2.30697C14.2454 2.52014 14.7402 2.838 15.1594 3.2424C15.5787 3.6468 15.9142 4.12982 16.1468 4.66388C16.3793 5.19794 16.5045 5.77258 16.515 6.35499C16.5255 6.9374 16.4212 7.51618 16.208 8.05828C15.9948 8.60038 15.677 9.09518 15.2726 9.51444C14.8682 9.9337 14.3851 10.2692 13.8511 10.5018C13.317 10.7344 12.7424 10.8595 12.16 10.87ZM7.15997 14.56C4.73997 16.18 4.73997 18.82 7.15997 20.43C9.90997 22.27 14.42 22.27 17.17 20.43C19.59 18.81 19.59 16.17 17.17 14.56C14.43 12.73 9.91997 12.73 7.15997 14.56Z" stroke="black" stroke-width="1.5" stroke-linecap="round" stroke-linejoin="round"/>
</svg>
